<svg width="40" height="40" viewBox="0 0 40 40" fill="none" xmlns="http://www.w3.org/2000/svg">
<ellipse cx="20" cy="20.004" rx="20" ry="20.004" fill="white"/>
<path d="M25 9.02539H15C12.2386 9.02539 10 11.264 10 14.0254V24.0254C10 26.7868 12.2386 29.0254 15 29.0254H25C27.7614 29.0254 30 26.7868 30 24.0254V14.0254C30 11.264 27.7614 9.02539 25 9.02539Z" stroke="#FF5733" stroke-width="2" stroke-linecap="round" stroke-linejoin="round"/>
<path d="M24 18.3957C24.1234 19.2279 23.9812 20.0779 23.5937 20.8247C23.2062 21.5715 22.5931 22.1771 21.8416 22.5554C21.0901 22.9336 20.2384 23.0653 19.4077 22.9316C18.5771 22.798 17.8097 22.4058 17.2148 21.8109C16.6199 21.2159 16.2277 20.4486 16.094 19.6179C15.9604 18.7872 16.092 17.9356 16.4703 17.1841C16.8485 16.4325 17.4541 15.8194 18.2009 15.4319C18.9477 15.0444 19.7977 14.9023 20.63 15.0257C21.4789 15.1516 22.2648 15.5472 22.8716 16.154C23.4785 16.7608 23.8741 17.5468 24 18.3957Z" stroke="#FF5733" stroke-width="2" stroke-linecap="round" stroke-linejoin="round"/>
<path d="M25.5 13.5254H25.51" stroke="#FF5733" stroke-width="2" stroke-linecap="round" stroke-linejoin="round"/>
</svg>
