<svg width="187" height="88" viewBox="0 0 187 88" fill="none" xmlns="http://www.w3.org/2000/svg">
<rect width="187" height="88" rx="20" fill="white"/>
<path d="M71.8942 24.126H79.0125C79.3808 24.126 79.6854 24.2464 79.9262 24.4872C80.1812 24.7138 80.3087 25.0113 80.3087 25.3796C80.3087 25.7338 80.1812 26.0242 79.9262 26.2508C79.6854 26.4633 79.3808 26.5696 79.0125 26.5696H73.0629L73.2541 26.2083V30.3518L73.0841 30.1818H78.0563C78.4246 30.1818 78.7292 30.3022 78.97 30.543C79.225 30.7697 79.3525 31.0672 79.3525 31.4355C79.3525 31.7896 79.225 32.08 78.97 32.3067C78.7292 32.5192 78.4246 32.6254 78.0563 32.6254H73.1479L73.2541 32.4554V36.7476L73.0841 36.5564H79.0125C79.3808 36.5564 79.6854 36.6839 79.9262 36.9389C80.1812 37.1797 80.3087 37.463 80.3087 37.7888C80.3087 38.143 80.1812 38.4334 79.9262 38.66C79.6854 38.8867 79.3808 39 79.0125 39H71.8942C71.5259 39 71.2143 38.8796 70.9593 38.6388C70.7185 38.3838 70.598 38.0721 70.598 37.7038V25.4221C70.598 25.0538 70.7185 24.7493 70.9593 24.5084C71.2143 24.2535 71.5259 24.126 71.8942 24.126ZM82.9916 27.632C83.4024 27.632 83.7495 27.8091 84.0328 28.1632L91.1299 36.9814C91.314 37.208 91.4061 37.463 91.4061 37.7463C91.4061 38.1005 91.2715 38.405 91.0024 38.66C90.7332 38.915 90.4357 39.0425 90.1099 39.0425C89.6991 39.0425 89.3521 38.8583 89.0687 38.49L81.9717 29.6719C81.7875 29.4452 81.6955 29.1902 81.6955 28.9069C81.6955 28.5386 81.823 28.234 82.0779 27.9932C82.3471 27.7524 82.6517 27.632 82.9916 27.632ZM83.0129 39.0212C82.7296 39.0212 82.4463 38.915 82.1629 38.7025C81.8938 38.4759 81.7592 38.2067 81.7592 37.8951C81.7592 37.6118 81.8655 37.3426 82.0779 37.0876L85.329 33.1141L86.6039 35.239L84.0328 38.49C83.7637 38.8442 83.4237 39.0212 83.0129 39.0212ZM90.0887 27.632C90.4287 27.632 90.712 27.7524 90.9386 27.9932C91.1794 28.2199 91.2998 28.4819 91.2998 28.7794C91.2998 28.9211 91.2786 29.0627 91.2361 29.2044C91.1936 29.346 91.1157 29.4806 91.0024 29.6081L87.7938 33.5179L86.4552 31.6692L89.0687 28.2057C89.3521 27.8232 89.692 27.632 90.0887 27.632ZM99.2108 27.4195C100.202 27.4195 101.088 27.6745 101.867 28.1844C102.66 28.6803 103.283 29.3673 103.737 30.2456C104.204 31.1238 104.438 32.1438 104.438 33.3054C104.438 34.467 104.204 35.494 103.737 36.3864C103.283 37.2647 102.667 37.9588 101.888 38.4688C101.123 38.9646 100.259 39.2125 99.2958 39.2125C98.7292 39.2125 98.198 39.1204 97.7022 38.9363C97.2064 38.7521 96.7672 38.5184 96.3847 38.235C96.0164 37.9517 95.726 37.6684 95.5135 37.3851C95.3152 37.0876 95.2161 36.8397 95.2161 36.6414L95.8748 36.3652V41.9536C95.8748 42.3219 95.7544 42.6264 95.5135 42.8672C95.2727 43.1222 94.9682 43.2497 94.5999 43.2497C94.2315 43.2497 93.927 43.1293 93.6862 42.8885C93.4453 42.6477 93.3249 42.336 93.3249 41.9536V28.9282C93.3249 28.5598 93.4453 28.2553 93.6862 28.0145C93.927 27.7595 94.2315 27.632 94.5999 27.632C94.9682 27.632 95.2727 27.7595 95.5135 28.0145C95.7544 28.2553 95.8748 28.5598 95.8748 28.9282V29.9693L95.5135 29.7781C95.5135 29.5939 95.6127 29.3744 95.811 29.1194C96.0093 28.8502 96.2785 28.5882 96.6185 28.3332C96.9585 28.064 97.348 27.8445 97.7872 27.6745C98.2405 27.5045 98.715 27.4195 99.2108 27.4195ZM98.8921 29.7568C98.2688 29.7568 97.7234 29.9127 97.2559 30.2243C96.7885 30.536 96.4202 30.9609 96.151 31.4992C95.896 32.0234 95.7685 32.6254 95.7685 33.3054C95.7685 33.9712 95.896 34.5803 96.151 35.1328C96.4202 35.671 96.7885 36.096 97.2559 36.4077C97.7234 36.7193 98.2688 36.8751 98.8921 36.8751C99.5154 36.8751 100.054 36.7193 100.507 36.4077C100.974 36.096 101.336 35.671 101.591 35.1328C101.86 34.5803 101.994 33.9712 101.994 33.3054C101.994 32.6254 101.86 32.0234 101.591 31.4992C101.336 30.9609 100.974 30.536 100.507 30.2243C100.054 29.9127 99.5154 29.7568 98.8921 29.7568ZM109.642 37.7038C109.642 38.0721 109.515 38.3838 109.26 38.6388C109.019 38.8796 108.715 39 108.346 39C107.992 39 107.695 38.8796 107.454 38.6388C107.213 38.3838 107.093 38.0721 107.093 37.7038V24.5722C107.093 24.2039 107.213 23.8993 107.454 23.6585C107.709 23.4035 108.02 23.276 108.389 23.276C108.757 23.276 109.055 23.4035 109.281 23.6585C109.522 23.8993 109.642 24.2039 109.642 24.5722V37.7038ZM123.64 33.3266C123.64 34.4882 123.378 35.5152 122.854 36.4077C122.344 37.2859 121.65 37.973 120.772 38.4688C119.908 38.9646 118.937 39.2125 117.861 39.2125C116.784 39.2125 115.807 38.9646 114.928 38.4688C114.064 37.973 113.37 37.2859 112.846 36.4077C112.336 35.5152 112.081 34.4882 112.081 33.3266C112.081 32.165 112.336 31.1451 112.846 30.2668C113.37 29.3744 114.064 28.6803 114.928 28.1844C115.807 27.6745 116.784 27.4195 117.861 27.4195C118.937 27.4195 119.908 27.6745 120.772 28.1844C121.65 28.6803 122.344 29.3744 122.854 30.2668C123.378 31.1451 123.64 32.165 123.64 33.3266ZM121.09 33.3266C121.09 32.6042 120.942 31.9809 120.644 31.4567C120.361 30.9184 119.971 30.5005 119.476 30.2031C118.994 29.9056 118.456 29.7568 117.861 29.7568C117.266 29.7568 116.72 29.9056 116.224 30.2031C115.743 30.5005 115.353 30.9184 115.056 31.4567C114.772 31.9809 114.631 32.6042 114.631 33.3266C114.631 34.0349 114.772 34.6582 115.056 35.1965C115.353 35.7206 115.743 36.1314 116.224 36.4289C116.72 36.7264 117.266 36.8751 117.861 36.8751C118.456 36.8751 118.994 36.7264 119.476 36.4289C119.971 36.1314 120.361 35.7206 120.644 35.1965C120.942 34.6582 121.09 34.0349 121.09 33.3266ZM127.359 39C126.991 39 126.686 38.8796 126.446 38.6388C126.205 38.3838 126.084 38.0721 126.084 37.7038V28.9282C126.084 28.5598 126.205 28.2553 126.446 28.0145C126.686 27.7595 126.991 27.632 127.359 27.632C127.728 27.632 128.032 27.7595 128.273 28.0145C128.514 28.2553 128.634 28.5598 128.634 28.9282V30.9255L128.485 29.5019C128.641 29.1619 128.84 28.8644 129.08 28.6094C129.335 28.3403 129.619 28.1207 129.93 27.9507C130.242 27.7666 130.575 27.632 130.929 27.547C131.283 27.462 131.637 27.4195 131.991 27.4195C132.416 27.4195 132.771 27.5399 133.054 27.7807C133.351 28.0215 133.5 28.3049 133.5 28.6307C133.5 29.0981 133.38 29.4381 133.139 29.6506C132.898 29.8489 132.636 29.9481 132.353 29.9481C132.084 29.9481 131.836 29.8985 131.609 29.7993C131.396 29.7002 131.149 29.6506 130.865 29.6506C130.61 29.6506 130.348 29.7144 130.079 29.8418C129.824 29.9552 129.583 30.1393 129.357 30.3943C129.144 30.6493 128.967 30.968 128.825 31.3505C128.698 31.7188 128.634 32.1579 128.634 32.6679V37.7038C128.634 38.0721 128.514 38.3838 128.273 38.6388C128.032 38.8796 127.728 39 127.359 39ZM137.911 37.7038C137.911 38.0721 137.791 38.3838 137.55 38.6388C137.309 38.8796 137.005 39 136.636 39C136.268 39 135.963 38.8796 135.723 38.6388C135.482 38.3838 135.361 38.0721 135.361 37.7038V28.9282C135.361 28.5598 135.482 28.2553 135.723 28.0145C135.963 27.7595 136.268 27.632 136.636 27.632C137.005 27.632 137.309 27.7595 137.55 28.0145C137.791 28.2553 137.911 28.5598 137.911 28.9282V37.7038ZM136.615 26.2508C136.133 26.2508 135.793 26.1729 135.595 26.0171C135.397 25.8613 135.298 25.585 135.298 25.1884V24.7847C135.298 24.3739 135.404 24.0976 135.616 23.956C135.843 23.8001 136.183 23.7222 136.636 23.7222C137.132 23.7222 137.479 23.8001 137.677 23.956C137.876 24.1118 137.975 24.388 137.975 24.7847V25.1884C137.975 25.5992 137.869 25.8825 137.656 26.0383C137.444 26.18 137.097 26.2508 136.615 26.2508ZM146.821 27.4195C147.87 27.4195 148.663 27.6391 149.201 28.0782C149.754 28.5173 150.129 29.1052 150.327 29.8418C150.54 30.5643 150.646 31.3717 150.646 32.2642V37.7038C150.646 38.0721 150.526 38.3838 150.285 38.6388C150.044 38.8796 149.739 39 149.371 39C149.003 39 148.698 38.8796 148.457 38.6388C148.217 38.3838 148.096 38.0721 148.096 37.7038V32.2642C148.096 31.7967 148.033 31.3788 147.905 31.0105C147.792 30.628 147.579 30.3235 147.268 30.0968C146.956 29.8702 146.51 29.7568 145.929 29.7568C145.362 29.7568 144.881 29.8702 144.484 30.0968C144.102 30.3235 143.804 30.628 143.592 31.0105C143.393 31.3788 143.294 31.7967 143.294 32.2642V37.7038C143.294 38.0721 143.174 38.3838 142.933 38.6388C142.692 38.8796 142.387 39 142.019 39C141.651 39 141.346 38.8796 141.105 38.6388C140.865 38.3838 140.744 38.0721 140.744 37.7038V28.9282C140.744 28.5598 140.865 28.2553 141.105 28.0145C141.346 27.7595 141.651 27.632 142.019 27.632C142.387 27.632 142.692 27.7595 142.933 28.0145C143.174 28.2553 143.294 28.5598 143.294 28.9282V29.8418L142.975 29.7781C143.103 29.5373 143.287 29.2823 143.528 29.0131C143.769 28.7298 144.052 28.4678 144.378 28.2269C144.704 27.9861 145.072 27.7949 145.483 27.6532C145.893 27.4974 146.34 27.4195 146.821 27.4195ZM158.332 27.4195C158.927 27.4195 159.472 27.5116 159.968 27.6957C160.464 27.8799 160.889 28.1136 161.243 28.3969C161.611 28.6803 161.894 28.9706 162.093 29.2681C162.305 29.5514 162.412 29.7923 162.412 29.9906L161.859 30.2668V28.7157C161.859 28.3474 161.979 28.0428 162.22 27.802C162.461 27.547 162.766 27.4195 163.134 27.4195C163.502 27.4195 163.807 27.5399 164.048 27.7807C164.288 28.0215 164.409 28.3332 164.409 28.7157V38.1713C164.409 39.4037 164.14 40.3882 163.601 41.1249C163.077 41.8756 162.383 42.4139 161.519 42.7398C160.655 43.0797 159.727 43.2497 158.736 43.2497C158.452 43.2497 158.084 43.2143 157.631 43.1435C157.177 43.0727 156.745 42.9877 156.334 42.8885C155.924 42.7893 155.612 42.6973 155.399 42.6123C154.975 42.4281 154.677 42.1944 154.507 41.9111C154.351 41.6419 154.323 41.3515 154.422 41.0399C154.55 40.6291 154.755 40.3457 155.038 40.1899C155.322 40.0483 155.619 40.0341 155.931 40.1474C156.072 40.1899 156.306 40.2749 156.632 40.4024C156.958 40.5299 157.312 40.6432 157.694 40.7424C158.091 40.8557 158.438 40.9124 158.736 40.9124C159.798 40.9124 160.584 40.6999 161.094 40.2749C161.604 39.8499 161.859 39.2621 161.859 38.5113V36.6627L162.114 36.8539C162.114 37.038 162.015 37.2647 161.817 37.5338C161.632 37.7888 161.37 38.0438 161.03 38.2988C160.705 38.5538 160.315 38.7733 159.862 38.9575C159.408 39.1275 158.927 39.2125 158.417 39.2125C157.411 39.2125 156.504 38.9646 155.697 38.4688C154.89 37.9588 154.252 37.2647 153.785 36.3864C153.317 35.494 153.083 34.474 153.083 33.3266C153.083 32.165 153.317 31.1451 153.785 30.2668C154.252 29.3744 154.882 28.6803 155.676 28.1844C156.469 27.6745 157.354 27.4195 158.332 27.4195ZM158.736 29.7568C158.098 29.7568 157.539 29.9127 157.057 30.2243C156.575 30.536 156.2 30.9609 155.931 31.4992C155.662 32.0375 155.527 32.6467 155.527 33.3266C155.527 33.9924 155.662 34.5945 155.931 35.1328C156.2 35.671 156.575 36.096 157.057 36.4077C157.539 36.7193 158.098 36.8751 158.736 36.8751C159.387 36.8751 159.954 36.7193 160.435 36.4077C160.917 36.096 161.292 35.671 161.562 35.1328C161.831 34.5945 161.965 33.9924 161.965 33.3266C161.965 32.6467 161.831 32.0375 161.562 31.4992C161.292 30.9609 160.917 30.536 160.435 30.2243C159.954 29.9127 159.387 29.7568 158.736 29.7568Z" fill="#1D1D1D"/>
<path d="M71.6688 64.1527C71.6575 64.3 71.5952 64.4247 71.4818 64.5267C71.3798 64.6287 71.2609 64.6797 71.1249 64.6797C70.9662 64.6797 70.8359 64.6287 70.7339 64.5267C70.6432 64.4247 70.5979 64.3 70.5979 64.1527V53.3074C70.5979 53.1601 70.6489 53.0354 70.7509 52.9334C70.8529 52.8315 70.9832 52.7805 71.1419 52.7805C71.2779 52.7805 71.3968 52.8315 71.4988 52.9334C71.6122 53.0354 71.6688 53.1601 71.6688 53.3074V64.1527ZM78.8594 55.7893C79.6073 55.7893 80.2023 55.9423 80.6442 56.2482C81.0976 56.5429 81.4205 56.9509 81.6132 57.4722C81.8172 57.9821 81.9192 58.5488 81.9192 59.172V64.1697C81.9192 64.3057 81.8682 64.4247 81.7662 64.5267C81.6642 64.6287 81.5452 64.6797 81.4092 64.6797C81.2505 64.6797 81.1259 64.6287 81.0352 64.5267C80.9446 64.4247 80.8992 64.3057 80.8992 64.1697V59.223C80.8992 58.7697 80.8256 58.3561 80.6782 57.9821C80.5309 57.6081 80.2873 57.3078 79.9473 57.0812C79.6186 56.8545 79.1823 56.7412 78.6384 56.7412C78.1511 56.7412 77.6864 56.8545 77.2445 57.0812C76.8138 57.3078 76.4625 57.6081 76.1905 57.9821C75.9186 58.3561 75.7826 58.7697 75.7826 59.223V64.1697C75.7826 64.3057 75.7316 64.4247 75.6296 64.5267C75.5276 64.6287 75.4086 64.6797 75.2726 64.6797C75.1139 64.6797 74.9893 64.6287 74.8986 64.5267C74.808 64.4247 74.7626 64.3057 74.7626 64.1697V56.5542C74.7626 56.4182 74.808 56.2992 74.8986 56.1972C75.0006 56.0952 75.1253 56.0442 75.2726 56.0442C75.4199 56.0442 75.5389 56.0952 75.6296 56.1972C75.7316 56.2992 75.7826 56.4182 75.7826 56.5542V57.9821L75.3916 58.5941C75.4143 58.2314 75.5276 57.8858 75.7316 57.5571C75.9469 57.2172 76.2189 56.9169 76.5475 56.6562C76.8762 56.3842 77.2388 56.1746 77.6354 56.0272C78.0434 55.8686 78.4514 55.7893 78.8594 55.7893ZM91.8826 52.1005C92.03 52.1005 92.149 52.1515 92.2396 52.2535C92.3416 52.3442 92.3926 52.4631 92.3926 52.6105V64.1697C92.3926 64.3057 92.3416 64.4247 92.2396 64.5267C92.1376 64.6287 92.0186 64.6797 91.8826 64.6797C91.7353 64.6797 91.6107 64.6287 91.5087 64.5267C91.418 64.4247 91.3727 64.3057 91.3727 64.1697V62.1469L91.6617 61.9089C91.6617 62.2262 91.5767 62.5605 91.4067 62.9118C91.2367 63.2518 90.993 63.5691 90.6757 63.8637C90.3697 64.1584 90.0071 64.3964 89.5878 64.5777C89.1798 64.759 88.7378 64.8497 88.2619 64.8497C87.5026 64.8497 86.817 64.6514 86.205 64.2547C85.6044 63.8581 85.1284 63.3198 84.7771 62.6398C84.4258 61.9599 84.2501 61.1836 84.2501 60.311C84.2501 59.4497 84.4258 58.6791 84.7771 57.9991C85.1284 57.3078 85.6044 56.7695 86.205 56.3842C86.8056 55.9876 87.4856 55.7893 88.2449 55.7893C88.7095 55.7893 89.1515 55.8743 89.5708 56.0442C89.9901 56.2142 90.3584 56.4466 90.6757 56.7412C91.0044 57.0358 91.2594 57.3758 91.4407 57.7611C91.6333 58.1351 91.7297 58.5261 91.7297 58.9341L91.3727 58.6791V52.6105C91.3727 52.4745 91.418 52.3555 91.5087 52.2535C91.6107 52.1515 91.7353 52.1005 91.8826 52.1005ZM88.3469 63.8977C88.9588 63.8977 89.4915 63.7447 89.9448 63.4388C90.4094 63.1215 90.772 62.6965 91.0327 62.1639C91.3047 61.6199 91.4407 61.0023 91.4407 60.311C91.4407 59.631 91.3047 59.0247 91.0327 58.4921C90.772 57.9481 90.4094 57.5232 89.9448 57.2172C89.4801 56.8999 88.9475 56.7412 88.3469 56.7412C87.7576 56.7412 87.2249 56.8999 86.749 57.2172C86.2843 57.5232 85.916 57.9481 85.644 58.4921C85.3834 59.0247 85.2531 59.631 85.2531 60.311C85.2531 60.9909 85.3834 61.6029 85.644 62.1469C85.916 62.6908 86.2843 63.1215 86.749 63.4388C87.2249 63.7447 87.7576 63.8977 88.3469 63.8977ZM96.2249 64.1697C96.2249 64.3057 96.1739 64.4247 96.0719 64.5267C95.9699 64.6287 95.851 64.6797 95.715 64.6797C95.5676 64.6797 95.443 64.6287 95.341 64.5267C95.2503 64.4247 95.205 64.3057 95.205 64.1697V56.3502C95.205 56.2142 95.2503 56.0952 95.341 55.9932C95.443 55.8913 95.5676 55.8403 95.715 55.8403C95.8623 55.8403 95.9813 55.8913 96.0719 55.9932C96.1739 56.0952 96.2249 56.2142 96.2249 56.3502V64.1697ZM95.715 54.7013C95.477 54.7013 95.2957 54.6503 95.171 54.5483C95.0577 54.435 95.001 54.2764 95.001 54.0724V53.9024C95.001 53.6984 95.0633 53.5454 95.188 53.4434C95.324 53.3301 95.5053 53.2734 95.732 53.2734C95.9473 53.2734 96.1116 53.3301 96.2249 53.4434C96.3496 53.5454 96.4119 53.6984 96.4119 53.9024V54.0724C96.4119 54.2764 96.3496 54.435 96.2249 54.5483C96.1116 54.6503 95.9416 54.7013 95.715 54.7013ZM106.167 55.9932C106.314 55.9932 106.433 56.0442 106.524 56.1462C106.626 56.2482 106.677 56.3729 106.677 56.5202V64.1697C106.677 64.3057 106.626 64.4247 106.524 64.5267C106.422 64.6287 106.303 64.6797 106.167 64.6797C106.02 64.6797 105.895 64.6287 105.793 64.5267C105.702 64.4247 105.657 64.3057 105.657 64.1697V62.1469L105.946 62.0109C105.946 62.3282 105.855 62.6512 105.674 62.9798C105.504 63.3084 105.266 63.6144 104.96 63.8977C104.654 64.1811 104.291 64.4134 103.872 64.5947C103.464 64.7647 103.022 64.8497 102.546 64.8497C101.776 64.8497 101.084 64.6514 100.472 64.2547C99.8718 63.8581 99.3958 63.3141 99.0445 62.6228C98.7045 61.9315 98.5345 61.1552 98.5345 60.294C98.5345 59.41 98.7102 58.6337 99.0615 57.9651C99.4128 57.2852 99.8888 56.7525 100.489 56.3672C101.09 55.9819 101.77 55.7893 102.529 55.7893C103.017 55.7893 103.47 55.8743 103.889 56.0442C104.32 56.2142 104.694 56.4466 105.011 56.7412C105.328 57.0358 105.572 57.3758 105.742 57.7611C105.923 58.1351 106.014 58.5261 106.014 58.9341L105.657 58.6791V56.5202C105.657 56.3729 105.702 56.2482 105.793 56.1462C105.895 56.0442 106.02 55.9932 106.167 55.9932ZM102.631 63.8977C103.232 63.8977 103.765 63.7447 104.229 63.4388C104.694 63.1215 105.056 62.6908 105.317 62.1469C105.589 61.5916 105.725 60.9739 105.725 60.294C105.725 59.6253 105.589 59.0247 105.317 58.4921C105.056 57.9595 104.694 57.5345 104.229 57.2172C103.765 56.8999 103.232 56.7412 102.631 56.7412C102.042 56.7412 101.509 56.8942 101.033 57.2002C100.569 57.5062 100.2 57.9255 99.9284 58.4581C99.6678 58.9907 99.5375 59.6027 99.5375 60.294C99.5375 60.9739 99.6678 61.5916 99.9284 62.1469C100.2 62.6908 100.569 63.1215 101.033 63.4388C101.498 63.7447 102.031 63.8977 102.631 63.8977Z" fill="#1D1D1D"/>
<path d="M42 17C39.6136 17 36.2727 17.4155 34.3636 18.2464V20.383H26.7273V26.9115H57.2727V20.383H49.6364V18.2464C47.7273 17.4155 44.3864 17 42 17ZM36.2727 21.8074C37.3227 21.8074 38.1818 22.6573 38.1818 23.7066C38.1818 24.7512 37.3227 25.6058 36.2727 25.6058C35.2227 25.6058 34.3636 24.7512 34.3636 23.7066C34.3636 22.6573 35.2227 21.8074 36.2727 21.8074ZM47.7273 21.8074C48.7773 21.8074 49.6364 22.6573 49.6364 23.7066C49.6364 24.7512 48.7773 25.6058 47.7273 25.6058C46.6773 25.6058 45.8182 24.7512 45.8182 23.7066C45.8182 22.6573 46.6773 21.8074 47.7273 21.8074ZM24.8182 29.0482V31.1848H22.9091V33.3214H61.0909V31.1848H59.1818V29.0482H24.8182ZM21 35.2206V37.3572H63V35.2206H21ZM22.9091 39.4938V48.0403H36.3562C37.3227 41.8679 46.6773 41.8679 47.6437 48.0403H61.0909V39.4938H22.9091ZM22.9091 50.1769V53.738H34.3636V55.8746H22.9091V70H36.2727V50.1769H22.9091ZM47.7273 50.1769V70H61.0909V55.8746H49.6364V53.738H61.0909V50.1769H47.7273Z" fill="#FF5733"/>
</svg>
