<svg width="50" height="50" viewBox="0 0 50 50" fill="none" xmlns="http://www.w3.org/2000/svg">
<circle cx="25" cy="25" r="25" fill="#1700A4"/>
<path d="M28.9136 14.88C30.1534 14.88 31.2996 15.2192 32.3522 15.8975C33.4048 16.5525 34.2469 17.4531 34.8785 18.5993C35.5101 19.7455 35.8259 21.032 35.8259 22.4589C35.8259 23.8859 35.5101 25.1841 34.8785 26.3537C34.2469 27.4999 33.4048 28.4239 32.3522 29.1256C31.2996 29.804 30.1534 30.1432 28.9136 30.1432H22.1417L22.4224 29.5818V37.6519C22.4224 38.1666 22.2586 38.5993 21.9311 38.9502C21.6271 39.2777 21.2177 39.4414 20.7031 39.4414C20.2118 39.4414 19.8025 39.2777 19.475 38.9502C19.1709 38.5993 19.0189 38.1666 19.0189 37.6519V16.6695C19.0189 16.1549 19.1943 15.7338 19.5452 15.4063C19.8961 15.0554 20.3171 14.88 20.8083 14.88H28.9136ZM28.9136 26.7747C29.5218 26.7747 30.0715 26.5759 30.5627 26.1782C31.0773 25.7806 31.4867 25.2543 31.7908 24.5993C32.1183 23.9443 32.282 23.2309 32.282 22.4589C32.282 21.687 32.1183 20.9853 31.7908 20.3537C31.4867 19.7221 31.0773 19.2192 30.5627 18.8449C30.0715 18.4473 29.5218 18.2484 28.9136 18.2484H22.0715L22.4224 17.7221V27.2309L22.1066 26.7747H28.9136Z" fill="white"/>
</svg>
