<svg width="40" height="40" viewBox="0 0 40 40" fill="none" xmlns="http://www.w3.org/2000/svg">
<ellipse cx="20" cy="20.004" rx="20" ry="20.004" fill="white"/>
<path d="M31 10.0257C30.0424 10.7012 28.9821 11.2178 27.86 11.5557C27.2577 10.8632 26.4573 10.3724 25.567 10.1496C24.6767 9.92684 23.7395 9.98288 22.8821 10.3101C22.0247 10.6374 21.2884 11.2201 20.773 11.9794C20.2575 12.7387 19.9877 13.638 20 14.5557V15.5557C18.2426 15.6012 16.5013 15.2115 14.931 14.4211C13.3607 13.6308 12.0103 12.4643 11 11.0257C11 11.0257 7 20.0257 16 24.0257C13.9405 25.4236 11.4872 26.1246 9 26.0257C18 31.0257 29 26.0257 29 14.5257C28.9991 14.2471 28.9723 13.9693 28.92 13.6957C29.9406 12.6892 30.6608 11.4184 31 10.0257V10.0257Z" stroke="#FF5733" stroke-width="2" stroke-linecap="round" stroke-linejoin="round"/>
</svg>
